<mxfile host="app.diagrams.net" modified="2023-09-17T13:34:17.631Z" agent="Mozilla/5.0 (Windows NT 10.0; Win64; x64) AppleWebKit/537.36 (KHTML, like Gecko) Chrome/115.0.0.0 Safari/537.36 Edg/115.0.1901.203" etag="1rG0OM3KGgrTXhhaK6JZ" version="21.7.5" type="github">
  <diagram name="第 1 页" id="QdTz1OdY-nPdW1Y3nJjc">
    <mxGraphModel dx="1042" dy="569" grid="1" gridSize="10" guides="1" tooltips="1" connect="1" arrows="1" fold="1" page="1" pageScale="1" pageWidth="827" pageHeight="1169" math="0" shadow="0">
      <root>
        <mxCell id="0" />
        <mxCell id="1" parent="0" />
        <mxCell id="PhWUNJA6eAWERZPl__r1-1" value="&lt;font style=&quot;font-size: 27px;&quot;&gt;加班&lt;/font&gt;" style="ellipse;whiteSpace=wrap;html=1;aspect=fixed;strokeWidth=2;" vertex="1" parent="1">
          <mxGeometry x="130" y="110" width="80" height="80" as="geometry" />
        </mxCell>
        <mxCell id="PhWUNJA6eAWERZPl__r1-3" value="&lt;font style=&quot;font-size: 27px;&quot;&gt;贫穷&lt;/font&gt;" style="ellipse;whiteSpace=wrap;html=1;aspect=fixed;strokeWidth=2;" vertex="1" parent="1">
          <mxGeometry x="250" y="110" width="80" height="80" as="geometry" />
        </mxCell>
        <mxCell id="PhWUNJA6eAWERZPl__r1-4" value="&lt;font style=&quot;font-size: 27px;&quot;&gt;单身&lt;/font&gt;" style="ellipse;whiteSpace=wrap;html=1;aspect=fixed;strokeWidth=2;" vertex="1" parent="1">
          <mxGeometry x="370" y="110" width="80" height="80" as="geometry" />
        </mxCell>
        <mxCell id="PhWUNJA6eAWERZPl__r1-5" value="&lt;font style=&quot;font-size: 27px;&quot;&gt;失眠&lt;/font&gt;" style="ellipse;whiteSpace=wrap;html=1;aspect=fixed;strokeWidth=2;" vertex="1" parent="1">
          <mxGeometry x="500" y="110" width="80" height="80" as="geometry" />
        </mxCell>
        <mxCell id="PhWUNJA6eAWERZPl__r1-6" value="&lt;span style=&quot;font-size: 27px;&quot;&gt;堵车&lt;/span&gt;" style="ellipse;whiteSpace=wrap;html=1;aspect=fixed;strokeWidth=2;" vertex="1" parent="1">
          <mxGeometry x="620" y="110" width="80" height="80" as="geometry" />
        </mxCell>
        <mxCell id="PhWUNJA6eAWERZPl__r1-7" value="&lt;font style=&quot;font-size: 27px;&quot;&gt;迟到&lt;/font&gt;" style="ellipse;whiteSpace=wrap;html=1;aspect=fixed;strokeWidth=2;" vertex="1" parent="1">
          <mxGeometry x="130" y="230" width="80" height="80" as="geometry" />
        </mxCell>
        <mxCell id="PhWUNJA6eAWERZPl__r1-8" value="&lt;font style=&quot;font-size: 27px;&quot;&gt;焦虑&lt;/font&gt;" style="ellipse;whiteSpace=wrap;html=1;aspect=fixed;strokeWidth=2;" vertex="1" parent="1">
          <mxGeometry x="250" y="230" width="80" height="80" as="geometry" />
        </mxCell>
        <mxCell id="PhWUNJA6eAWERZPl__r1-9" value="&lt;font style=&quot;font-size: 27px;&quot;&gt;孤独&lt;/font&gt;" style="ellipse;whiteSpace=wrap;html=1;aspect=fixed;strokeWidth=2;" vertex="1" parent="1">
          <mxGeometry x="370" y="230" width="80" height="80" as="geometry" />
        </mxCell>
        <mxCell id="PhWUNJA6eAWERZPl__r1-10" value="&lt;font style=&quot;font-size: 27px;&quot;&gt;挂科&lt;/font&gt;" style="ellipse;whiteSpace=wrap;html=1;aspect=fixed;strokeWidth=2;" vertex="1" parent="1">
          <mxGeometry x="490" y="230" width="80" height="80" as="geometry" />
        </mxCell>
        <mxCell id="PhWUNJA6eAWERZPl__r1-11" value="&lt;span style=&quot;font-size: 27px;&quot;&gt;失恋&lt;/span&gt;" style="ellipse;whiteSpace=wrap;html=1;aspect=fixed;strokeWidth=2;" vertex="1" parent="1">
          <mxGeometry x="620" y="230" width="80" height="80" as="geometry" />
        </mxCell>
        <mxCell id="PhWUNJA6eAWERZPl__r1-12" value="脚&lt;br style=&quot;font-size: 36px;&quot;&gt;中" style="text;html=1;strokeColor=none;fillColor=none;align=center;verticalAlign=middle;whiteSpace=wrap;rounded=0;fontSize=36;fontFamily=Comic Sans MS;" vertex="1" parent="1">
          <mxGeometry x="270" y="400" width="100" height="160" as="geometry" />
        </mxCell>
      </root>
    </mxGraphModel>
  </diagram>
</mxfile>
